<svg id="logo-53" xmlns="http://www.w3.org/2000/svg" viewBox="0 0 40.78 40.78"><defs><style>.cls-1{fill:#1a1414;fill-rule:evenodd;}</style></defs><path class="cls-1" d="M20.39,0A20.39,20.39,0,1,1,0,20.39,20.39,20.39,0,0,1,20.39,0ZM40,20.39A19.61,19.61,0,0,0,20.39.78,20.08,20.08,0,0,0,17.81,1c.55,0,1.1-.07,1.66-.07A18.74,18.74,0,1,1,.8,21.25,19.61,19.61,0,0,0,40,20.39Zm-2.58-.77a18,18,0,0,0-18-18,17,17,0,0,0-2.38.16c.48,0,1-.06,1.45-.06a17.08,17.08,0,1,1-17,18.6,18,18,0,0,0,35.89-.74ZM18.54,2.54A16.3,16.3,0,1,1,2.26,19.46,15.43,15.43,0,1,0,17.62,2.64c-.44,0-.88,0-1.31,0A16.49,16.49,0,0,1,18.54,2.54ZM32.27,18.06A14.64,14.64,0,0,0,17.62,3.42a13.31,13.31,0,0,0-2,.14c.36,0,.72-.05,1.09-.05A13.78,13.78,0,1,1,3,18.61a14.65,14.65,0,0,0,29.28-.55ZM16.7,4.3a13,13,0,1,1-13,13.41A12.12,12.12,0,1,0,15.77,4.39c-.3,0-.61,0-.91,0A13.87,13.87,0,0,1,16.7,4.3ZM27.11,16.51A11.34,11.34,0,0,0,15.77,5.17a11.66,11.66,0,0,0-1.68.13c.25,0,.5,0,.76,0A10.47,10.47,0,1,1,4.44,16.81a11.34,11.34,0,0,0,22.67-.3ZM14.85,6.05a9.68,9.68,0,1,1-9.68,9.89,8.81,8.81,0,1,0,8.76-9.79h-.56A10.31,10.31,0,0,1,14.85,6.05ZM22,15A8,8,0,0,0,12.62,7H13a7.16,7.16,0,1,1-7.1,8A8,8,0,0,0,22,15ZM13,7.81a6.37,6.37,0,1,1-6.37,6.37v0A5.5,5.5,0,1,0,12.08,7.9h-.21A6.09,6.09,0,0,1,13,7.81Zm3.8,5.59a4.72,4.72,0,1,0-4.72,4.72A4.72,4.72,0,0,0,16.8,13.4Z"/></svg>